<svg width="185" height="31" viewBox="0 0 185 31" fill="none" xmlns="http://www.w3.org/2000/svg">
<path d="M184.375 13.0682L181.364 13.9204C181.174 13.4185 180.895 12.9308 180.526 12.4574C180.166 11.9744 179.673 11.5767 179.048 11.2642C178.423 10.9517 177.623 10.7954 176.648 10.7954C175.313 10.7954 174.2 11.1032 173.31 11.7187C172.429 12.3248 171.989 13.0966 171.989 14.0341C171.989 14.8674 172.292 15.5255 172.898 16.0085C173.504 16.4915 174.451 16.8939 175.739 17.2159L178.977 18.0113C180.928 18.4848 182.382 19.2093 183.338 20.1846C184.295 21.1505 184.773 22.3958 184.773 23.9204C184.773 25.1704 184.413 26.2879 183.693 27.2727C182.983 28.2576 181.989 29.0341 180.71 29.6022C179.432 30.1704 177.945 30.4545 176.25 30.4545C174.025 30.4545 172.183 29.9716 170.724 29.0057C169.266 28.0397 168.343 26.6288 167.955 24.7727L171.136 23.9772C171.439 25.1515 172.012 26.0322 172.855 26.6193C173.707 27.2064 174.82 27.5 176.193 27.5C177.756 27.5 178.996 27.1685 179.915 26.5057C180.843 25.8333 181.307 25.0284 181.307 24.0909C181.307 23.3333 181.042 22.6988 180.511 22.1875C179.981 21.6666 179.167 21.2784 178.068 21.0227L174.432 20.1704C172.434 19.6969 170.966 18.963 170.028 17.9687C169.1 16.9649 168.636 15.7102 168.636 14.2045C168.636 12.9735 168.982 11.8844 169.673 10.9375C170.374 9.99051 171.326 9.24714 172.528 8.70736C173.741 8.16759 175.114 7.89771 176.648 7.89771C178.807 7.89771 180.502 8.37119 181.733 9.31816C182.974 10.2651 183.854 11.5151 184.375 13.0682Z" fill="black"/>
<path d="M148.874 16.875V30H145.522V8.18179H148.761V11.5909H149.045C149.556 10.4829 150.333 9.59278 151.374 8.92043C152.416 8.23861 153.761 7.89771 155.408 7.89771C156.886 7.89771 158.178 8.20073 159.286 8.80679C160.394 9.40338 161.256 10.3125 161.871 11.5341C162.487 12.7462 162.795 14.2803 162.795 16.1363V30H159.442V16.3636C159.442 14.6496 158.997 13.3144 158.107 12.3579C157.217 11.392 155.995 10.9091 154.442 10.9091C153.372 10.9091 152.416 11.1411 151.573 11.6051C150.74 12.0691 150.082 12.7462 149.599 13.6363C149.116 14.5265 148.874 15.606 148.874 16.875Z" fill="black"/>
<path d="M130.518 30.4545C128.549 30.4545 126.821 29.9858 125.334 29.0483C123.857 28.1108 122.701 26.7992 121.868 25.1136C121.044 23.428 120.632 21.4583 120.632 19.2045C120.632 16.9318 121.044 14.9479 121.868 13.2528C122.701 11.5577 123.857 10.2415 125.334 9.30396C126.821 8.36646 128.549 7.89771 130.518 7.89771C132.488 7.89771 134.212 8.36646 135.689 9.30396C137.176 10.2415 138.331 11.5577 139.155 13.2528C139.988 14.9479 140.405 16.9318 140.405 19.2045C140.405 21.4583 139.988 23.428 139.155 25.1136C138.331 26.7992 137.176 28.1108 135.689 29.0483C134.212 29.9858 132.488 30.4545 130.518 30.4545ZM130.518 27.4432C132.015 27.4432 133.246 27.0596 134.212 26.2926C135.178 25.5255 135.892 24.517 136.357 23.267C136.821 22.017 137.053 20.6629 137.053 19.2045C137.053 17.7462 136.821 16.3873 136.357 15.1278C135.892 13.8683 135.178 12.8504 134.212 12.0738C133.246 11.2973 132.015 10.9091 130.518 10.9091C129.022 10.9091 127.791 11.2973 126.825 12.0738C125.859 12.8504 125.144 13.8683 124.68 15.1278C124.216 16.3873 123.984 17.7462 123.984 19.2045C123.984 20.6629 124.216 22.017 124.68 23.267C125.144 24.517 125.859 25.5255 126.825 26.2926C127.791 27.0596 129.022 27.4432 130.518 27.4432Z" fill="black"/>
<path d="M112.163 30V8.18182H115.515V30H112.163ZM113.867 4.54546C113.214 4.54546 112.65 4.32292 112.177 3.87784C111.713 3.43277 111.481 2.89773 111.481 2.27273C111.481 1.64773 111.713 1.11269 112.177 0.667612C112.65 0.222537 113.214 0 113.867 0C114.52 0 115.079 0.222537 115.543 0.667612C116.017 1.11269 116.253 1.64773 116.253 2.27273C116.253 2.89773 116.017 3.43277 115.543 3.87784C115.079 4.32292 114.52 4.54546 113.867 4.54546Z" fill="black"/>
<path d="M107.12 8.18186V11.0228H95.8132V8.18186H107.12ZM99.1087 2.95459H102.461V23.75C102.461 24.697 102.598 25.4072 102.873 25.8807C103.157 26.3447 103.517 26.6572 103.952 26.8182C104.398 26.9697 104.866 27.0455 105.359 27.0455C105.728 27.0455 106.031 27.0266 106.268 26.9887C106.505 26.9413 106.694 26.9035 106.836 26.875L107.518 29.8864C107.291 29.9716 106.973 30.0569 106.566 30.1421C106.159 30.2368 105.643 30.2841 105.018 30.2841C104.071 30.2841 103.143 30.0805 102.234 29.6733C101.334 29.2661 100.586 28.6459 99.9894 27.8125C99.4023 26.9792 99.1087 25.9281 99.1087 24.6591V2.95459Z" fill="black"/>
<path d="M84.1513 30.4545C82.1058 30.4545 80.3444 29.9716 78.8672 29.0057C77.3899 28.0397 76.2535 26.7093 75.4581 25.0142C74.6626 23.3191 74.2649 21.3826 74.2649 19.2045C74.2649 16.9886 74.6721 15.0331 75.4865 13.338C76.3103 11.6335 77.4562 10.303 78.924 9.34657C80.4013 8.38066 82.1247 7.89771 84.0944 7.89771C85.6285 7.89771 87.0111 8.1818 88.2422 8.74998C89.4732 9.31816 90.4817 10.1136 91.2677 11.1363C92.0537 12.1591 92.5414 13.3522 92.7308 14.7159H89.3785C89.1228 13.7216 88.5547 12.8409 87.674 12.0738C86.8028 11.2973 85.6285 10.9091 84.1513 10.9091C82.8444 10.9091 81.6986 11.25 80.7138 11.9318C79.7384 12.6041 78.9761 13.5558 78.4268 14.7869C77.8871 16.0085 77.6172 17.4432 77.6172 19.0909C77.6172 20.7765 77.8823 22.2443 78.4126 23.4943C78.9524 24.7443 79.71 25.7149 80.6853 26.4062C81.6702 27.0975 82.8255 27.4432 84.1513 27.4432C85.0225 27.4432 85.8132 27.2916 86.5234 26.9886C87.2336 26.6856 87.835 26.25 88.3274 25.6818C88.8198 25.1136 89.1702 24.4318 89.3785 23.6363H92.7308C92.5414 24.9242 92.0727 26.0843 91.3245 27.1165C90.5859 28.1392 89.6058 28.9536 88.3842 29.5596C87.1721 30.1562 85.7611 30.4545 84.1513 30.4545Z" fill="black"/>
<path d="M61.1541 30.4545C59.0518 30.4545 57.2384 29.9905 55.7138 29.0625C54.1986 28.125 53.0291 26.8182 52.2052 25.142C51.3908 23.4564 50.9836 21.4962 50.9836 19.2613C50.9836 17.0265 51.3908 15.0568 52.2052 13.3522C53.0291 11.6382 54.1749 10.303 55.6427 9.34657C57.12 8.38066 58.8435 7.89771 60.8132 7.89771C61.9496 7.89771 63.0717 8.0871 64.1797 8.46589C65.2876 8.84467 66.2961 9.4602 67.2052 10.3125C68.1143 11.1553 68.8388 12.2727 69.3785 13.6647C69.9183 15.0568 70.1882 16.7708 70.1882 18.8068V20.2272H53.37V17.3295H66.7791C66.7791 16.0985 66.5329 15 66.0405 14.0341C65.5575 13.0682 64.8662 12.3058 63.9666 11.7471C63.0764 11.1884 62.0253 10.9091 60.8132 10.9091C59.478 10.9091 58.3227 11.2405 57.3473 11.9034C56.3814 12.5568 55.638 13.4091 55.1172 14.4602C54.5963 15.5113 54.3359 16.6382 54.3359 17.8409V19.7727C54.3359 21.4204 54.62 22.8172 55.1882 23.963C55.7658 25.0994 56.566 25.9659 57.5888 26.5625C58.6115 27.1496 59.7999 27.4432 61.1541 27.4432C62.0348 27.4432 62.8302 27.3201 63.5405 27.0738C64.2602 26.8182 64.8804 26.4394 65.4013 25.9375C65.9221 25.4261 66.3246 24.7916 66.6086 24.0341L69.8473 24.9432C69.5064 26.0416 68.9334 27.0076 68.1285 27.8409C67.3236 28.6647 66.3293 29.3087 65.1456 29.7727C63.9619 30.2273 62.6314 30.4545 61.1541 30.4545Z" fill="black"/>
<path d="M37.7876 29.9999V8.18173H41.0262V11.4772H41.2535C41.6512 10.3976 42.3709 9.52169 43.4126 8.84934C44.4543 8.17699 45.6285 7.84082 46.9353 7.84082C47.1815 7.84082 47.4893 7.84556 47.8586 7.85503C48.2279 7.8645 48.5073 7.8787 48.6967 7.89764V11.3067C48.5831 11.2783 48.3226 11.2357 47.9154 11.1789C47.5177 11.1126 47.0963 11.0795 46.6512 11.0795C45.5906 11.0795 44.6437 11.302 43.8103 11.7471C42.9865 12.1827 42.3331 12.7887 41.8501 13.5653C41.3766 14.3323 41.1399 15.2082 41.1399 16.1931V29.9999H37.7876Z" fill="black"/>
<path d="M28.2956 30V8.18182H31.6479V30H28.2956ZM30.0001 4.54546C29.3467 4.54546 28.7833 4.32292 28.3098 3.87784C27.8458 3.43277 27.6138 2.89773 27.6138 2.27273C27.6138 1.64773 27.8458 1.11269 28.3098 0.667612C28.7833 0.222537 29.3467 0 30.0001 0C30.6535 0 31.2123 0.222537 31.6763 0.667612C32.1498 1.11269 32.3865 1.64773 32.3865 2.27273C32.3865 2.89773 32.1498 3.43277 31.6763 3.87784C31.2123 4.32292 30.6535 4.54546 30.0001 4.54546Z" fill="black"/>
<path d="M8.97727 30.0001H0V0.90918H9.375C12.197 0.90918 14.6117 1.49157 16.6193 2.65634C18.6269 3.81164 20.1657 5.47357 21.2358 7.64213C22.3059 9.80122 22.8409 12.3865 22.8409 15.3978C22.8409 18.4281 22.3011 21.037 21.2216 23.2245C20.142 25.4025 18.5701 27.0787 16.5057 28.2529C14.4413 29.4177 11.9318 30.0001 8.97727 30.0001ZM3.52273 26.8751H8.75C11.1553 26.8751 13.1487 26.4111 14.7301 25.483C16.3116 24.555 17.4905 23.234 18.267 21.52C19.0436 19.806 19.4318 17.7652 19.4318 15.3978C19.4318 13.0493 19.0483 11.0276 18.2812 9.33248C17.5142 7.62793 16.3684 6.32111 14.8438 5.41202C13.3191 4.49346 11.4205 4.03418 9.14773 4.03418H3.52273V26.8751Z" fill="black"/>
</svg>
